name Walk1.mot
datacolumns 19
datarows 30
range 3.15600000 3.18500000
endheader

                time	   L_ground_force_vx	   L_ground_force_vy	   L_ground_force_vz	   L_ground_force_px	   L_ground_force_py	   L_ground_force_pz	   R_ground_force_vx	   R_ground_force_vy	   R_ground_force_vz	   R_ground_force_px	   R_ground_force_py	   R_ground_force_pz	   L_ground_torque_x	   L_ground_torque_y	   L_ground_torque_z	   R_ground_torque_x	   R_ground_torque_y	   R_ground_torque_z	
          3.15600000	          0.00000000	          0.00000000	          0.00000000	          0.00000000	          0.00000000	          0.00000000	          0.00000000	          0.00000000	          0.00000000	          0.00000000	          0.00000000	          0.00000000	          0.00000000	          0.00000000	          0.00000000	          0.00000000	          0.00000000	          0.00000000	
          3.15700000	          0.00000000	          0.00000000	          0.00000000	          0.00000000	          0.00000000	          0.00000000	          0.00000000	          0.00000000	          0.00000000	          0.00000000	          0.00000000	          0.00000000	          0.00000000	          0.00000000	          0.00000000	          0.00000000	          0.00000000	          0.00000000	
          3.15800000	          4.98545161	          9.23726002	          0.99766993	         -0.37379223	          0.00000000	         -0.06887046	          0.00000000	          0.00000000	          0.00000000	          0.00000000	          0.00000000	          0.00000000	          0.00000000	          0.07041554	          0.00000000	          0.00000000	          0.00000000	          0.00000000	
          3.15900000	          8.74280233	         19.34868586	          1.86399873	         -0.36764477	          0.00000000	         -0.06062408	          0.00000000	          0.00000000	          0.00000000	          0.00000000	          0.00000000	          0.00000000	          0.00000000	          0.06961323	          0.00000000	          0.00000000	          0.00000000	          0.00000000	
          3.16000000	         13.30999554	         34.40274155	          3.01139406	         -0.36304057	          0.00000000	         -0.05491263	          0.00000000	          0.00000000	          0.00000000	          0.00000000	          0.00000000	          0.00000000	          0.00000000	          0.05551592	          0.00000000	          0.00000000	          0.00000000	          0.00000000	
          3.16100000	         18.58884166	         55.68827569	          4.47933233	         -0.35940773	          0.00000000	         -0.05092200	          0.00000000	          0.00000000	          0.00000000	          0.00000000	          0.00000000	          0.00000000	          0.00000000	          0.03826292	          0.00000000	          0.00000000	          0.00000000	          0.00000000	
          3.16200000	         24.60862021	         84.35222812	          6.33155444	         -0.35667440	          0.00000000	         -0.04836608	          0.00000000	          0.00000000	          0.00000000	          0.00000000	          0.00000000	          0.00000000	          0.00000000	          0.02947999	          0.00000000	          0.00000000	          0.00000000	          0.00000000	
          3.16300000	         31.47083901	        120.65354441	          8.60281235	         -0.35470768	          0.00000000	         -0.04693436	          0.00000000	          0.00000000	          0.00000000	          0.00000000	          0.00000000	          0.00000000	          0.00000000	          0.03346557	          0.00000000	          0.00000000	          0.00000000	          0.00000000	
          3.16400000	         39.14814091	        163.07421012	         11.19339763	         -0.35328839	          0.00000000	         -0.04624326	          0.00000000	          0.00000000	          0.00000000	          0.00000000	          0.00000000	          0.00000000	          0.00000000	          0.04695779	          0.00000000	          0.00000000	          0.00000000	          0.00000000	
          3.16500000	         47.28971087	        207.97773802	         13.79491562	         -0.35224284	          0.00000000	         -0.04591644	          0.00000000	          0.00000000	          0.00000000	          0.00000000	          0.00000000	          0.00000000	          0.00000000	          0.06358254	          0.00000000	          0.00000000	          0.00000000	          0.00000000	
          3.16600000	         55.16170562	        250.29944165	         15.92705185	         -0.35148596	          0.00000000	         -0.04570298	          0.00000000	          0.00000000	          0.00000000	          0.00000000	          0.00000000	          0.00000000	          0.00000000	          0.07811529	          0.00000000	          0.00000000	          0.00000000	          0.00000000	
          3.16700000	         61.80252399	        285.17532459	         17.09566322	         -0.35096139	          0.00000000	         -0.04551099	          0.00000000	          0.00000000	          0.00000000	          0.00000000	          0.00000000	          0.00000000	          0.00000000	          0.08739331	          0.00000000	          0.00000000	          0.00000000	          0.00000000	
          3.16800000	         66.33410838	        309.62952370	         16.98463687	         -0.35059450	          0.00000000	         -0.04531836	          0.00000000	          0.00000000	          0.00000000	          0.00000000	          0.00000000	          0.00000000	          0.00000000	          0.08728740	          0.00000000	          0.00000000	          0.00000000	          0.00000000	
          3.16900000	         68.24228444	        323.27332360	         15.56023028	         -0.35030674	          0.00000000	         -0.04506068	          0.00000000	          0.00000000	          0.00000000	          0.00000000	          0.00000000	          0.00000000	          0.00000000	          0.07084720	          0.00000000	          0.00000000	          0.00000000	          0.00000000	
          3.17000000	         67.47973045	        327.77653151	         13.04563656	         -0.35003506	          0.00000000	         -0.04463617	          0.00000000	          0.00000000	          0.00000000	          0.00000000	          0.00000000	          0.00000000	          0.00000000	          0.03349791	          0.00000000	          0.00000000	          0.00000000	          0.00000000	
          3.17100000	         64.39928168	        325.75275281	          9.81747465	         -0.34972474	          0.00000000	         -0.04401960	          0.00000000	          0.00000000	          0.00000000	          0.00000000	          0.00000000	          0.00000000	          0.00000000	         -0.01887534	          0.00000000	          0.00000000	          0.00000000	          0.00000000	
          3.17200000	         59.59798616	        319.80878916	          6.28726069	         -0.34933145	          0.00000000	         -0.04330740	          0.00000000	          0.00000000	          0.00000000	          0.00000000	          0.00000000	          0.00000000	          0.00000000	         -0.07230319	          0.00000000	          0.00000000	          0.00000000	          0.00000000	
          3.17300000	         53.74312068	        312.08518715	          2.81011575	         -0.34882689	          0.00000000	         -0.04263343	          0.00000000	          0.00000000	          0.00000000	          0.00000000	          0.00000000	          0.00000000	          0.00000000	         -0.11556760	          0.00000000	          0.00000000	          0.00000000	          0.00000000	
          3.17400000	         47.43211125	        304.18853663	         -0.36218627	         -0.34818444	          0.00000000	         -0.04208653	          0.00000000	          0.00000000	          0.00000000	          0.00000000	          0.00000000	          0.00000000	          0.00000000	         -0.14400849	          0.00000000	          0.00000000	          0.00000000	          0.00000000	
          3.17500000	         41.10388592	        297.26946560	         -3.09253548	         -0.34738939	          0.00000000	         -0.04169000	          0.00000000	          0.00000000	          0.00000000	          0.00000000	          0.00000000	          0.00000000	          0.00000000	         -0.15645316	          0.00000000	          0.00000000	          0.00000000	          0.00000000	
          3.17600000	         35.00203688	        292.10513094	         -5.34124371	         -0.34647575	          0.00000000	         -0.04140672	          0.00000000	          0.00000000	          0.00000000	          0.00000000	          0.00000000	          0.00000000	          0.00000000	         -0.15449746	          0.00000000	          0.00000000	          0.00000000	          0.00000000	
          3.17700000	         29.19224544	        289.15988123	         -7.13114362	         -0.34552359	          0.00000000	         -0.04117366	          0.00000000	          0.00000000	          0.00000000	          0.00000000	          0.00000000	          0.00000000	          0.00000000	         -0.14430423	          0.00000000	          0.00000000	          0.00000000	          0.00000000	
          3.17800000	         23.61758023	        288.63592976	         -8.51631937	         -0.34461374	          0.00000000	         -0.04094861	          0.00000000	          0.00000000	          0.00000000	          0.00000000	          0.00000000	          0.00000000	          0.00000000	         -0.13642498	          0.00000000	          0.00000000	          0.00000000	          0.00000000	
          3.17900000	         18.16478125	        290.52789413	         -9.56665492	         -0.34379056	          0.00000000	         -0.04072121	          0.00000000	          0.00000000	          0.00000000	          0.00000000	          0.00000000	          0.00000000	          0.00000000	         -0.14003751	          0.00000000	          0.00000000	          0.00000000	          0.00000000	
          3.18000000	         12.71807104	        294.67471757	        -10.36450915	         -0.34305549	          0.00000000	         -0.04049732	          0.00000000	          0.00000000	          0.00000000	          0.00000000	          0.00000000	          0.00000000	          0.00000000	         -0.15516989	          0.00000000	          0.00000000	          0.00000000	          0.00000000	
          3.18100000	          7.17764105	        300.79575623	        -10.99341273	         -0.34237325	          0.00000000	         -0.04027775	          0.00000000	          0.00000000	          0.00000000	          0.00000000	          0.00000000	          0.00000000	          0.00000000	         -0.17380793	          0.00000000	          0.00000000	          0.00000000	          0.00000000	
          3.18200000	          1.44573468	        308.52405449	        -11.51243451	         -0.34167784	          0.00000000	         -0.04003755	          0.00000000	          0.00000000	          0.00000000	          0.00000000	          0.00000000	          0.00000000	          0.00000000	         -0.18799419	          0.00000000	          0.00000000	          0.00000000	          0.00000000	
          3.18300000	         -4.58905588	        317.44763997	        -11.94680380	         -0.34090392	          0.00000000	         -0.03974350	          0.00000000	          0.00000000	          0.00000000	          0.00000000	          0.00000000	          0.00000000	          0.00000000	         -0.19256853	          0.00000000	          0.00000000	          0.00000000	          0.00000000	
          3.18400000	        -11.04612016	        327.13015289	        -12.30672660	         -0.34002881	          0.00000000	         -0.03940561	          0.00000000	          0.00000000	          0.00000000	          0.00000000	          0.00000000	          0.00000000	          0.00000000	         -0.18350870	          0.00000000	          0.00000000	          0.00000000	          0.00000000	
          3.18500000	        -18.02477281	        337.10757141	        -12.59599373	         -0.33907108	          0.00000000	         -0.03907167	          0.00000000	          0.00000000	          0.00000000	          0.00000000	          0.00000000	          0.00000000	          0.00000000	         -0.15817043	          0.00000000	          0.00000000	          0.00000000	          0.00000000	
